<svg width="448" height="512" viewBox="0 0 448 512" fill="none" xmlns="http://www.w3.org/2000/svg">
<g clip-path="url(#clip0)">
<path d="M432 32H312L302.6 13.3C300.609 9.30213 297.541 5.93922 293.743 3.58958C289.945 1.23993 285.566 -0.00321107 281.1 -7.77828e-06H166.8C162.344 -0.0171383 157.973 1.22137 154.188 3.57363C150.403 5.92588 147.358 9.29674 145.4 13.3L136 32H16C11.7565 32 7.68687 33.6857 4.68629 36.6863C1.68571 39.6869 0 43.7565 0 48L0 80C0 84.2435 1.68571 88.3131 4.68629 91.3137C7.68687 94.3143 11.7565 96 16 96H432C436.243 96 440.313 94.3143 443.314 91.3137C446.314 88.3131 448 84.2435 448 80V48C448 43.7565 446.314 39.6869 443.314 36.6863C440.313 33.6857 436.243 32 432 32V32ZM53.2 467C53.9631 479.186 59.3416 490.623 68.2406 498.984C77.1395 507.344 88.89 511.998 101.1 512H346.9C359.11 511.998 370.86 507.344 379.759 498.984C388.658 490.623 394.037 479.186 394.8 467L416 128H32L53.2 467Z" fill="#FF0000"/>
</g>
<defs>
<clipPath id="clip0">
<rect width="448" height="512" fill="white"/>
</clipPath>
</defs>
</svg>
