<svg width="448" height="448" viewBox="0 0 448 448" fill="none" xmlns="http://www.w3.org/2000/svg">
<path d="M400 448H48C21.5 448 0 426.5 0 400V48C0 21.5 21.5 0 48 0H400C426.5 0 448 21.5 448 48V400C448 426.5 426.5 448 400 448ZM238.1 145.9L102.4 281.6L96.1 338.7C95.3 346.3 101.7 352.8 109.4 352L166.5 345.7L302.2 210C304.5 207.7 304.5 203.9 302.2 201.5L246.7 146C244.2 143.6 240.4 143.6 238.1 145.9ZM345 133.1L314.9 103C305.5 93.6 290.3 93.6 281 103L257.9 126.1C255.6 128.4 255.6 132.2 257.9 134.6L313.4 190.1C315.7 192.4 319.5 192.4 321.9 190.1L345 167C354.3 157.7 354.3 142.5 345 133.1Z" fill="#0047FF"/>
</svg>
