<svg width="192" height="192" viewBox="0 0 192 192" fill="none" xmlns="http://www.w3.org/2000/svg">
<circle cx="96" cy="96" r="96" fill="url(#paint0_linear)"/>
<path d="M82.0122 69.28C78.8122 69.28 76.3322 68.4 74.5722 66.64C72.8922 64.8 72.0522 62.6 72.0522 60.04C72.0522 59.4 72.1322 58.64 72.2922 57.76C72.5322 56.88 72.8122 56.12 73.1322 55.48C74.1722 55.96 75.6922 56.32 77.6922 56.56C79.7722 56.72 82.1722 56.8 84.8922 56.8C88.9722 56.8 93.5722 56.64 98.6922 56.32C103.892 55.92 108.852 55.52 113.572 55.12C118.292 54.72 122.452 54.36 126.052 54.04C129.652 53.64 131.972 53.44 133.012 53.44C135.972 53.44 138.092 54.56 139.372 56.8C140.732 58.96 141.732 61.88 142.372 65.56C140.292 65.4 138.212 65.28 136.132 65.2C134.132 65.04 132.412 64.96 130.972 64.96C128.412 64.96 125.812 65.04 123.172 65.2C120.612 65.36 118.012 65.6 115.372 65.92C114.252 68.24 113.012 71 111.652 74.2C110.292 77.32 108.932 80.6 107.572 84.04C106.292 87.48 105.052 90.92 103.852 94.36C102.652 97.72 101.612 100.76 100.732 103.48C98.9722 108.76 97.4122 113.64 96.0522 118.12C94.7722 122.6 93.6122 126.8 92.5722 130.72C91.6122 134.56 90.7722 138.24 90.0522 141.76C89.3322 145.28 88.6922 148.72 88.1322 152.08C82.7722 151.28 78.2922 147.92 74.6922 142C75.3322 139.52 76.0922 136.84 76.9722 133.96C77.9322 131 79.0122 127.68 80.2122 124C81.4922 120.24 82.9722 116 84.6522 111.28C86.3322 106.56 88.2522 101.2 90.4122 95.2C91.2122 92.96 92.0522 90.64 92.9322 88.24C93.8122 85.76 94.6522 83.32 95.4522 80.92C96.3322 78.52 97.0922 76.2 97.7322 73.96C98.4522 71.72 99.0522 69.68 99.5322 67.84C96.1722 68.24 92.9722 68.6 89.9322 68.92C86.9722 69.16 84.3322 69.28 82.0122 69.28Z" fill="white"/>
<defs>
<linearGradient id="paint0_linear" x1="96" y1="0" x2="96" y2="192" gradientUnits="userSpaceOnUse">
<stop stop-color="#6EA7FC"/>
<stop offset="1" stop-color="#003585"/>
</linearGradient>
</defs>
</svg>
